<svg width="60" height="60" viewBox="0 0 60 60" fill="none" xmlns="http://www.w3.org/2000/svg">
<rect opacity="0.1" width="60" height="60" rx="12" fill="#1CAF57"/>
<path d="M30.0003 26.153C29.6024 26.153 29.2134 26.035 28.8825 25.8139C28.5516 25.5928 28.2937 25.2786 28.1414 24.9109C27.9892 24.5433 27.9493 24.1387 28.0269 23.7484C28.1046 23.3581 28.2962 22.9996 28.5776 22.7182C28.859 22.4368 29.2175 22.2452 29.6078 22.1676C29.9981 22.0899 30.4026 22.1298 30.7703 22.2821C31.1379 22.4343 31.4522 22.6922 31.6732 23.0231C31.8943 23.354 32.0123 23.743 32.0123 24.1409C32.0118 24.6744 31.7996 25.1858 31.4224 25.5631C31.0452 25.9403 30.5338 26.1524 30.0003 26.153ZM30.0003 22.9401C29.7627 22.9401 29.5304 23.0106 29.3329 23.1426C29.1354 23.2746 28.9814 23.4622 28.8905 23.6817C28.7996 23.9013 28.7758 24.1428 28.8222 24.3758C28.8686 24.6089 28.983 24.8229 29.1511 24.9909C29.3191 25.1588 29.5332 25.2732 29.7662 25.3195C29.9992 25.3658 30.2408 25.342 30.4603 25.251C30.6798 25.16 30.8673 25.006 30.9993 24.8084C31.1312 24.6108 31.2016 24.3785 31.2015 24.1409C31.2011 23.8225 31.0744 23.5173 30.8492 23.2922C30.624 23.067 30.3187 22.9404 30.0003 22.9401Z" fill="#1CAF57"/>
<path d="M23.2402 42.0437C23.0042 42.0433 22.7701 42.0022 22.5482 41.922C22.0391 41.7397 21.6233 41.3627 21.3921 40.8739C21.1609 40.3851 21.1333 39.8245 21.3153 39.3153L26.0379 25.7342C26.0553 25.6838 26.0824 25.6373 26.1178 25.5974C26.1532 25.5575 26.1961 25.525 26.2441 25.5017C26.2921 25.4784 26.3442 25.4648 26.3974 25.4616C26.4506 25.4585 26.504 25.4659 26.5544 25.4834C26.6047 25.501 26.6511 25.5282 26.691 25.5637C26.7308 25.5992 26.7632 25.6422 26.7863 25.6903C26.8095 25.7383 26.823 25.7904 26.8259 25.8437C26.8289 25.8969 26.8214 25.9502 26.8037 26.0006L22.0799 39.5845C22.0249 39.7371 22.0006 39.8991 22.0084 40.0611C22.0162 40.2231 22.056 40.382 22.1253 40.5287C22.229 40.7487 22.3956 40.933 22.6042 41.0582C22.8127 41.1834 23.0537 41.2438 23.2967 41.2318C23.5396 41.2197 23.7735 41.1358 23.9686 40.9906C24.1638 40.8455 24.3114 40.6456 24.3928 40.4164L28.7489 27.8865C28.7868 27.7886 28.8613 27.7093 28.9567 27.6652C29.052 27.6211 29.1607 27.6158 29.2599 27.6502C29.359 27.6847 29.441 27.7563 29.4884 27.85C29.5359 27.9437 29.5452 28.0521 29.5143 28.1525L25.1578 40.6851C25.0175 41.0818 24.7579 41.4254 24.4145 41.6686C24.0712 41.9119 23.661 42.0429 23.2402 42.0437Z" fill="#1CAF57"/>
<path d="M36.7615 42.0432C36.3415 42.0421 35.9321 41.9114 35.589 41.6691C35.2459 41.4268 34.9859 41.0846 34.8444 40.6891L30.4867 28.152C30.4558 28.0516 30.4651 27.9432 30.5125 27.8495C30.56 27.7558 30.6419 27.6842 30.7411 27.6498C30.8403 27.6153 30.949 27.6207 31.0443 27.6647C31.1396 27.7088 31.2141 27.7882 31.2521 27.886L35.6086 40.4191C35.7211 40.7228 35.9489 40.9698 36.2425 41.1064C36.5361 41.243 36.8717 41.2583 37.1765 41.1489C37.4813 41.0394 37.7306 40.8142 37.8702 40.522C38.0098 40.2298 38.0285 39.8944 37.9222 39.5885L33.1972 26.0074C33.1796 25.9571 33.172 25.9038 33.175 25.8505C33.178 25.7973 33.1914 25.7451 33.2146 25.6971C33.2378 25.6491 33.2702 25.6061 33.31 25.5706C33.3498 25.5351 33.3962 25.5078 33.4466 25.4903C33.497 25.4728 33.5503 25.4653 33.6035 25.4685C33.6568 25.4716 33.7089 25.4852 33.7569 25.5085C33.8048 25.5318 33.8477 25.5643 33.8831 25.6042C33.9185 25.6441 33.9457 25.6906 33.963 25.7411L38.6864 39.3173C38.7952 39.6254 38.8285 39.9551 38.7836 40.2788C38.7387 40.6025 38.617 40.9107 38.4285 41.1777C38.24 41.4446 37.9902 41.6625 37.7002 41.8131C37.4102 41.9637 37.0883 42.0426 36.7615 42.0432Z" fill="#1CAF57"/>
<path d="M38.227 44.1894C38.1463 44.1894 38.0674 44.1653 38.0004 44.1203C37.9335 44.0752 37.8815 44.0112 37.8512 43.9364L36.9406 41.6929C36.902 41.5936 36.9041 41.4832 36.9463 41.3854C36.9884 41.2877 37.0674 41.2104 37.166 41.1704C37.2647 41.1303 37.3752 41.1307 37.4735 41.1714C37.5719 41.2122 37.6503 41.29 37.6918 41.388L38.6028 43.6315C38.6277 43.6931 38.6372 43.7598 38.6303 43.8259C38.6235 43.892 38.6005 43.9554 38.5633 44.0105C38.5262 44.0656 38.4761 44.1107 38.4175 44.1419C38.3588 44.1731 38.2934 44.1894 38.227 44.1894Z" fill="#1CAF57"/>
<path d="M21.7743 44.1893C21.7079 44.1892 21.6425 44.1729 21.5839 44.1416C21.5253 44.1104 21.4753 44.0653 21.4382 44.0102C21.4011 43.9551 21.3782 43.8918 21.3713 43.8257C21.3645 43.7597 21.3739 43.6929 21.3989 43.6314L22.3094 41.3879C22.3499 41.2882 22.4282 41.2087 22.5273 41.1668C22.6264 41.1249 22.738 41.1241 22.8377 41.1645C22.9373 41.2049 23.0169 41.2833 23.0588 41.3824C23.1007 41.4814 23.1015 41.5931 23.0611 41.6928L22.1501 43.9363C22.1198 44.0111 22.0678 44.0751 22.0008 44.1202C21.9339 44.1652 21.855 44.1893 21.7743 44.1893Z" fill="#1CAF57"/>
<path d="M30.0005 28.5204C29.1345 28.5204 28.288 28.2636 27.568 27.7825C26.8479 27.3014 26.2867 26.6176 25.9554 25.8176C25.624 25.0175 25.5373 24.1372 25.7062 23.2879C25.8751 22.4386 26.2921 21.6584 26.9045 21.0461C27.5168 20.4337 28.297 20.0167 29.1463 19.8478C29.9956 19.6789 30.8759 19.7656 31.676 20.097C32.476 20.4283 33.1599 20.9895 33.641 21.7096C34.1221 22.4296 34.3788 23.2761 34.3788 24.1421C34.3772 25.3028 33.9154 26.4155 33.0947 27.2363C32.2739 28.057 31.1612 28.5188 30.0005 28.5204ZM30.0005 20.5725C29.2949 20.5725 28.6051 20.7817 28.0184 21.1737C27.4317 21.5657 26.9745 22.1229 26.7045 22.7748C26.4344 23.4267 26.3638 24.144 26.5014 24.836C26.6391 25.5281 26.9789 26.1637 27.4778 26.6627C27.9767 27.1616 28.6124 27.5014 29.3045 27.639C29.9965 27.7767 30.7138 27.7061 31.3657 27.436C32.0176 27.166 32.5748 26.7087 32.9668 26.1221C33.3588 25.5354 33.568 24.8456 33.568 24.14C33.5667 23.1942 33.1905 22.2876 32.5217 21.6188C31.8529 20.95 30.9462 20.5737 30.0005 20.5725Z" fill="#1CAF57"/>
<path d="M31.2612 20.7771C31.1537 20.7771 31.0505 20.7344 30.9745 20.6583C30.8985 20.5823 30.8558 20.4792 30.8558 20.3717V17.4734C30.8558 17.2467 30.7657 17.0292 30.6054 16.8689C30.445 16.7085 30.2275 16.6184 30.0008 16.6184C29.774 16.6184 29.5565 16.7085 29.3962 16.8689C29.2359 17.0292 29.1458 17.2467 29.1458 17.4734V20.3701C29.1458 20.4776 29.1031 20.5807 29.027 20.6567C28.951 20.7327 28.8479 20.7755 28.7404 20.7755C28.6328 20.7755 28.5297 20.7327 28.4537 20.6567C28.3777 20.5807 28.335 20.4776 28.335 20.3701V17.4734C28.335 17.0316 28.5105 16.6079 28.8229 16.2955C29.1353 15.9831 29.559 15.8076 30.0008 15.8076C30.4426 15.8076 30.8663 15.9831 31.1787 16.2955C31.4911 16.6079 31.6666 17.0316 31.6666 17.4734V20.3701C31.6668 20.4234 31.6565 20.4763 31.6362 20.5257C31.6159 20.5751 31.5861 20.6199 31.5484 20.6578C31.5108 20.6956 31.466 20.7256 31.4167 20.7461C31.3674 20.7665 31.3146 20.7771 31.2612 20.7771Z" fill="#1CAF57"/>
<path d="M38.9371 35.3108H36.7228C36.6153 35.3108 36.5122 35.2681 36.4361 35.1921C36.3601 35.116 36.3174 35.0129 36.3174 34.9054C36.3174 34.7979 36.3601 34.6948 36.4361 34.6187C36.5122 34.5427 36.6153 34.5 36.7228 34.5H38.9371C39.0446 34.5 39.1477 34.5427 39.2238 34.6187C39.2998 34.6948 39.3425 34.7979 39.3425 34.9054C39.3425 35.0129 39.2998 35.116 39.2238 35.1921C39.1477 35.2681 39.0446 35.3108 38.9371 35.3108Z" fill="#1CAF57"/>
<path d="M23.2779 35.3108H21.0636C20.9561 35.3108 20.853 35.2681 20.7769 35.1921C20.7009 35.116 20.6582 35.0129 20.6582 34.9054C20.6582 34.7979 20.7009 34.6948 20.7769 34.6187C20.853 34.5427 20.9561 34.5 21.0636 34.5H23.2779C23.3855 34.5 23.4886 34.5427 23.5646 34.6187C23.6406 34.6948 23.6833 34.7979 23.6833 34.9054C23.6833 35.0129 23.6406 35.116 23.5646 35.1921C23.4886 35.2681 23.3855 35.3108 23.2779 35.3108Z" fill="#1CAF57"/>
<path d="M33.2615 35.3108H26.7394C26.6319 35.3108 26.5288 35.2681 26.4527 35.1921C26.3767 35.116 26.334 35.0129 26.334 34.9054C26.334 34.7979 26.3767 34.6948 26.4527 34.6187C26.5288 34.5427 26.6319 34.5 26.7394 34.5H33.2615C33.3691 34.5 33.4722 34.5427 33.5482 34.6187C33.6242 34.6948 33.667 34.7979 33.667 34.9054C33.667 35.0129 33.6242 35.116 33.5482 35.1921C33.4722 35.2681 33.3691 35.3108 33.2615 35.3108Z" fill="#1CAF57"/>
</svg>
