<svg width="60" height="60" viewBox="0 0 60 60" fill="none" xmlns="http://www.w3.org/2000/svg">
<rect opacity="0.1" width="60" height="60" rx="12" fill="#1CAF57"/>
<path d="M23.0255 33.0601C23.3056 32.8985 23.4015 32.5399 23.2399 32.2597C23.0781 31.9798 22.7197 31.8836 22.4395 32.0452C22.1594 32.2071 22.0633 32.5657 22.2251 32.8456C22.3867 33.1258 22.7453 33.2219 23.0255 33.0601Z" fill="#1CAF57"/>
<path d="M20.6241 37.1044L23.5748 42.2156C24.2116 43.3197 25.6439 43.7285 26.7767 43.0736C27.8975 42.4259 28.2827 40.9938 27.6343 39.872L25.8765 36.827L27.3988 35.9481C27.6789 35.786 27.775 35.4278 27.6132 35.1477L26.8513 33.828C26.9421 33.8103 27.5395 33.6931 38.0743 31.6266C39.3766 31.5558 40.1569 30.1315 39.4991 28.9928L37.5517 25.62L38.7962 23.7352C38.9184 23.5498 38.9257 23.3115 38.8147 23.1193L37.6428 21.0895C37.5318 20.8973 37.321 20.7847 37.1001 20.7977L34.8459 20.933L32.6841 17.1885C32.371 16.646 31.81 16.3176 31.1838 16.3098C31.1762 16.3096 31.1689 16.3096 31.1613 16.3096C30.5562 16.3096 30.0069 16.6108 29.6814 17.12L22.0271 26.8709L17.051 29.7438C15.0938 30.8733 14.4159 33.3842 15.5498 35.3466C16.5857 37.141 18.7697 37.8469 20.6241 37.1044ZM26.6196 40.4582C26.9433 41.0181 26.7517 41.7345 26.1903 42.0588C25.627 42.3845 24.9097 42.1844 24.5897 41.6299L21.66 36.5549L23.6897 35.383C27.0804 41.2565 26.5652 40.3641 26.6196 40.4582ZM25.2905 35.8119L24.7046 34.797L25.7194 34.2111L26.3054 35.226L25.2905 35.8119ZM36.809 21.989L37.6188 23.3916L36.8967 24.4852L35.5009 22.0676L36.809 21.989ZM30.6615 17.7625C30.8187 17.5052 31.0682 17.4787 31.1694 17.4814C31.2694 17.4826 31.5186 17.5137 31.669 17.7742L38.4842 29.5788C38.7062 29.9631 38.4364 30.4462 37.9912 30.4572C37.9113 30.459 37.8744 30.4735 37.6698 30.5117L30.4607 18.025C30.612 17.8305 30.6315 17.8117 30.6615 17.7625ZM29.6809 19.0184L36.4542 30.7502L26.2319 32.7552L23.1237 27.3717L29.6809 19.0184ZM16.5646 34.7607C16.3074 34.3155 16.1714 33.8101 16.1714 33.2988C16.1714 32.2537 16.7331 31.2805 17.6369 30.7587L22.2038 28.1219L25.1335 33.1962L20.5666 35.8332C19.1675 36.6407 17.3724 36.1596 16.5646 34.7607Z" fill="#1CAF57"/>
<path d="M21.2101 33.4317C21.0483 33.1516 20.6898 33.0554 20.4097 33.2173L19.3948 33.8032C19.1151 33.9648 18.756 33.8684 18.5944 33.5887C18.4326 33.3086 18.0742 33.2125 17.794 33.3743C17.5139 33.5361 17.4177 33.8945 17.5796 34.1747C18.0618 35.0101 19.1376 35.3047 19.9808 34.8181L20.9956 34.2321C21.2758 34.0703 21.3719 33.7121 21.2101 33.4317Z" fill="#1CAF57"/>
<path d="M44.1286 17.5634L40.8636 19.3803C40.581 19.5377 40.4791 19.8945 40.6366 20.1772C40.7936 20.4597 41.1502 20.562 41.4335 20.4043L44.6983 18.5874C44.9812 18.4299 45.0828 18.0731 44.9254 17.7904C44.7681 17.5075 44.4113 17.4059 44.1286 17.5634Z" fill="#1CAF57"/>
<path d="M43.7869 23.6315L41.523 23.025C41.2104 22.9412 40.889 23.1266 40.8053 23.4393C40.7215 23.7519 40.9071 24.073 41.2198 24.1568L43.4839 24.7634C43.7983 24.8478 44.1181 24.6594 44.2014 24.3491C44.2852 24.0364 44.0995 23.7151 43.7869 23.6315Z" fill="#1CAF57"/>
<path d="M38.098 15.4344L37.4908 17.6985C37.4071 18.0112 37.5925 18.3323 37.9051 18.4163C38.2175 18.4998 38.5389 18.3149 38.6229 18.002L39.2299 15.7379C39.3136 15.4252 39.1282 15.1039 38.8156 15.0201C38.5032 14.9364 38.1818 15.1217 38.098 15.4344Z" fill="#1CAF57"/>
</svg>
