<svg width="60" height="60" viewBox="0 0 60 60" fill="none" xmlns="http://www.w3.org/2000/svg">
<rect opacity="0.1" width="60" height="60" rx="12" fill="#1CAF57"/>
<g clip-path="url(#clip0_1502_2518)">
<path d="M28.6072 31.3726C28.5517 31.3606 28.4948 31.3584 28.4385 31.3668C27.8751 31.3012 27.45 30.8245 27.4491 30.2575C27.4491 29.9857 27.2287 29.7654 26.957 29.7654C26.6852 29.7654 26.4649 29.9857 26.4649 30.2575C26.4663 31.2044 27.0997 32.0338 28.0128 32.2844V32.7765C28.0128 33.0483 28.2331 33.2686 28.5048 33.2686C28.7766 33.2686 28.9969 33.0483 28.9969 32.7765V32.3142C30.0508 32.0937 30.7671 31.1121 30.6563 30.0412C30.5453 28.9703 29.643 28.1565 28.5664 28.1562C27.9493 28.1562 27.4491 27.656 27.4491 27.039C27.4491 26.4219 27.9493 25.9217 28.5664 25.9217C29.1834 25.9217 29.6836 26.4219 29.6836 27.039C29.6836 27.3107 29.904 27.531 30.1757 27.531C30.4475 27.531 30.6678 27.3107 30.6678 27.039C30.6664 26.0447 29.9698 25.1872 28.9969 24.982V24.5341C28.9969 24.2623 28.7766 24.042 28.5048 24.042C28.2331 24.042 28.0128 24.2623 28.0128 24.5341V25.012C26.9973 25.2893 26.3438 26.2751 26.4836 27.3184C26.6235 28.3617 27.5137 29.1404 28.5664 29.1402C29.1752 29.1402 29.6719 29.6277 29.6829 30.2363C29.6942 30.8449 29.2156 31.3505 28.6072 31.3726Z" fill="#1CAF57"/>
<path d="M21.4307 28.6865C21.4307 32.6275 24.6254 35.8222 28.5664 35.8222C32.5074 35.8222 35.7022 32.6275 35.7022 28.6865C35.7022 24.7455 32.5074 21.5508 28.5664 21.5508C24.6273 21.5551 21.4352 24.7474 21.4307 28.6865ZM28.5664 22.535C31.9639 22.535 34.718 25.289 34.718 28.6865C34.718 32.084 31.9639 34.8381 28.5664 34.8381C25.1689 34.8381 22.4148 32.084 22.4148 28.6865C22.4187 25.2907 25.1706 22.5388 28.5664 22.535Z" fill="#1CAF57"/>
<path d="M38.1282 37.0348L34.2735 38.8561C33.7413 37.8662 32.7203 37.2362 31.5968 37.2045L28.0383 37.1067C27.4748 37.0906 26.922 36.9478 26.421 36.6891L26.0589 36.5014C24.2049 35.535 21.9951 35.5374 20.143 36.5077L20.1656 35.6874C20.1731 35.4156 19.959 35.1893 19.6872 35.1818L15.7851 35.0744C15.5134 35.067 15.2873 35.281 15.2798 35.5528L15.0441 44.1158C15.0367 44.3875 15.2508 44.6139 15.5225 44.6213L19.4246 44.7287H19.4381C19.7048 44.7287 19.923 44.5166 19.9302 44.2501L19.9415 43.8404L20.9552 43.2976C21.3531 43.0836 21.8183 43.0326 22.2529 43.1556L28.3064 44.8546C28.317 44.8578 28.3276 44.8602 28.3384 44.8626C28.7759 44.9541 29.2219 45 29.6688 44.9998C30.6155 45.0003 31.5511 44.7963 32.4116 44.4012C32.4327 44.3916 32.4531 44.3803 32.4726 44.3676L41.2497 38.6903C41.4683 38.5488 41.539 38.2617 41.4109 38.0349C40.7593 36.8786 39.314 36.4382 38.1282 37.0348ZM16.0415 43.6511L16.2501 36.0718L19.1682 36.152L18.9597 43.7316L16.0415 43.6511ZM31.9683 43.5223C30.8993 44.0048 29.7053 44.1379 28.5563 43.9031L22.5191 42.2085C21.8396 42.0165 21.1123 42.096 20.4907 42.4302L19.9727 42.7078L20.1113 37.6684C21.7529 36.5766 23.8582 36.4644 25.6065 37.3753L25.9686 37.563C26.6014 37.8897 27.2994 38.0699 28.0114 38.0906L31.5701 38.1884C32.5697 38.2172 33.4186 38.9289 33.6214 39.9083L28.3206 39.762C28.0489 39.7545 27.8228 39.9689 27.8151 40.2404C27.8076 40.5121 28.022 40.7385 28.2935 40.7459L34.1432 40.9069H34.1569C34.4234 40.9067 34.6413 40.6945 34.6485 40.4283C34.6546 40.2144 34.6387 40.0003 34.601 39.7898L38.5547 37.9217C38.5586 37.92 38.5624 37.9181 38.5663 37.9162C39.1271 37.6324 39.8051 37.7273 40.2665 38.1543L31.9683 43.5223Z" fill="#1CAF57"/>
<path d="M29.0584 20.1669V15.4921C29.0584 15.2203 28.8381 15 28.5663 15C28.2946 15 28.0742 15.2203 28.0742 15.4921V20.1669C28.0742 20.4387 28.2946 20.659 28.5663 20.659C28.8381 20.659 29.0584 20.4387 29.0584 20.1669Z" fill="#1CAF57"/>
<path d="M32.7498 20.1664V17.952C32.7498 17.6803 32.5295 17.46 32.2577 17.46C31.986 17.46 31.7656 17.6803 31.7656 17.952V20.1664C31.7656 20.4382 31.986 20.6585 32.2577 20.6585C32.5295 20.6585 32.7498 20.4382 32.7498 20.1664Z" fill="#1CAF57"/>
<path d="M25.368 20.1664V17.952C25.368 17.6803 25.1476 17.46 24.8759 17.46C24.6041 17.46 24.3838 17.6803 24.3838 17.952V20.1664C24.3838 20.4382 24.6041 20.6585 24.8759 20.6585C25.1476 20.6585 25.368 20.4382 25.368 20.1664Z" fill="#1CAF57"/>
</g>
<defs>
<clipPath id="clip0_1502_2518">
<rect width="30" height="30" fill="white" transform="translate(15 15)"/>
</clipPath>
</defs>
</svg>
