<svg width="60" height="60" viewBox="0 0 60 60" fill="none" xmlns="http://www.w3.org/2000/svg">
<rect opacity="0.1" width="60" height="60" rx="12" fill="#1CAF57"/>
<g clip-path="url(#clip0_1502_2523)">
<path d="M44.7399 36.8274L41.6649 35.2899L39.7079 30.1993C39.6848 30.1391 39.6496 30.0843 39.6044 30.0383C39.5593 29.9923 39.5051 29.9562 39.4454 29.9321L27.3024 25.0782C27.2175 25.0444 27.1246 25.0361 27.035 25.0544C26.9455 25.0728 26.8633 25.1169 26.7985 25.1813L25.179 26.8008C25.1154 26.8657 25.072 26.9476 25.0541 27.0366C25.0362 27.1257 25.0446 27.218 25.0782 27.3024L29.9321 39.4454C29.9562 39.5051 29.9923 39.5593 30.0383 39.6044C30.0843 39.6496 30.1391 39.6848 30.1993 39.7079L35.2899 41.6649L36.8274 44.7399C36.8598 44.8077 36.908 44.8667 36.9679 44.912C37.0279 44.9573 37.0978 44.9875 37.1719 45C37.1969 45.0024 37.222 45.0024 37.2469 45C37.371 44.9995 37.4899 44.9498 37.5774 44.8618L44.8618 37.5774C44.9154 37.5257 44.9559 37.4619 44.9799 37.3914C45.004 37.3209 45.0109 37.2456 45 37.1719C44.9875 37.0978 44.9573 37.0279 44.912 36.9679C44.8667 36.908 44.8077 36.8598 44.7399 36.8274ZM26.0602 27.2414L26.3204 26.9836L32.3649 33.0282C31.9665 33.5926 31.7945 34.286 31.8828 34.9713C31.9711 35.6565 32.3132 36.2836 32.8417 36.7287C33.3701 37.1737 34.0463 37.4043 34.7365 37.3748C35.4268 37.3453 36.0808 37.0579 36.5694 36.5694C37.0579 36.0808 37.3453 35.4268 37.3748 34.7365C37.4043 34.0463 37.1737 33.3701 36.7287 32.8417C36.2836 32.3132 35.6565 31.9711 34.9713 31.8828C34.286 31.7945 33.5926 31.9665 33.0282 32.3649L26.9836 26.3204L27.2415 26.0602L38.9063 30.7266L40.7461 35.5125L35.5125 40.7461L30.7266 38.9063L26.0602 27.2414ZM34.6172 32.7961C35.0385 32.7968 35.4466 32.9434 35.7718 33.2112C36.0971 33.4789 36.3195 33.8511 36.4011 34.2644C36.4827 34.6777 36.4185 35.1065 36.2194 35.4778C36.0204 35.8491 35.6987 36.1399 35.3093 36.3006C34.9199 36.4613 34.4868 36.482 34.0838 36.3593C33.6808 36.2365 33.3328 35.9778 33.0992 35.6272C32.8655 35.2767 32.7606 34.8559 32.8024 34.4367C32.8442 34.0175 33.03 33.6257 33.3282 33.3282C33.6704 32.987 34.134 32.7957 34.6172 32.7961ZM37.3758 43.7391L36.2039 41.3954L41.3907 36.2086L43.7344 37.3805L37.3758 43.7391Z" fill="#1CAF57"/>
<path d="M23.9649 40.0786C23.8753 39.9938 23.7566 39.9466 23.6333 39.9466C23.51 39.9466 23.3913 39.9938 23.3017 40.0786L22.7063 40.6739C21.1177 38.5177 20.2413 35.9197 20.1993 33.2418C20.1573 30.564 20.9517 27.9397 22.472 25.7348C22.9274 25.9854 23.4518 26.0817 23.9666 26.0092C24.4814 25.9367 24.9588 25.6993 25.3273 25.3327C25.6959 24.966 25.9356 24.4898 26.0107 23.9754C26.0858 23.4609 25.9922 22.9361 25.7438 22.4793C27.9488 20.9591 30.573 20.1647 33.2509 20.2067C35.9287 20.2487 38.5268 21.1251 40.6829 22.7137L40.0782 23.302C39.991 23.3899 39.9422 23.5087 39.9423 23.6325C39.9419 23.6942 39.9537 23.7553 39.9771 23.8124C40.0004 23.8695 40.0348 23.9215 40.0782 23.9653L42.1454 26.0161C42.2332 26.1034 42.352 26.1524 42.4759 26.1524C42.5997 26.1524 42.7185 26.1034 42.8063 26.0161L44.8618 23.9606C44.9054 23.9171 44.94 23.8654 44.9636 23.8085C44.9871 23.7516 44.9993 23.6906 44.9993 23.629C44.9993 23.5674 44.9871 23.5064 44.9636 23.4495C44.94 23.3925 44.9054 23.3408 44.8618 23.2973L42.8063 21.2418C42.7185 21.1545 42.5997 21.1055 42.4759 21.1055C42.352 21.1055 42.2332 21.1545 42.1454 21.2418L41.3509 22.0317C39.3927 20.5582 37.0776 19.6324 34.6433 19.3494C32.209 19.0664 29.7433 19.4365 27.4993 20.4215L30.2017 17.7262C30.5081 17.8726 30.8564 17.9058 31.1849 17.8198C31.5135 17.7338 31.8009 17.5342 31.9963 17.2564C32.1916 16.9786 32.2823 16.6406 32.2521 16.3024C32.222 15.9641 32.073 15.6475 31.8316 15.4086C31.5902 15.1698 31.272 15.0241 30.9335 14.9976C30.5949 14.971 30.2579 15.0652 29.9822 15.2635C29.7065 15.4618 29.51 15.7513 29.4274 16.0807C29.3449 16.4101 29.3817 16.7581 29.5313 17.0629L24.9704 21.6309C24.5073 21.3203 23.9507 21.1801 23.3958 21.2342C22.8408 21.2884 22.3218 21.5335 21.9275 21.9278C21.5332 22.3221 21.288 22.8411 21.2339 23.3961C21.1797 23.9511 21.3199 24.5077 21.6306 24.9708L17.0626 29.5317C16.7566 29.3826 16.4076 29.3468 16.0776 29.4307C15.7477 29.5145 15.4582 29.7127 15.2605 29.9899C15.0629 30.2671 14.9699 30.6054 14.9981 30.9446C15.0263 31.2839 15.1739 31.6022 15.4147 31.8429C15.6554 32.0836 15.9737 32.2312 16.3129 32.2595C16.6522 32.2877 16.9905 32.1947 17.2677 31.9971C17.5449 31.7994 17.743 31.5099 17.8269 31.18C17.9108 30.85 17.875 30.501 17.7259 30.195L20.4282 27.4997C19.4422 29.743 19.071 32.2084 19.3527 34.6427C19.6344 37.077 20.559 39.3924 22.0313 41.3512L21.2392 42.1458C21.1519 42.2336 21.1029 42.3524 21.1029 42.4762C21.1029 42.6001 21.1519 42.7189 21.2392 42.8067L23.2946 44.8622C23.3821 44.9502 23.501 44.9999 23.6251 45.0004C23.687 45.0005 23.7482 44.9883 23.8053 44.9646C23.8624 44.9408 23.9143 44.906 23.9579 44.8622L26.0157 42.8067C26.103 42.7189 26.152 42.6001 26.152 42.4762C26.152 42.3524 26.103 42.2336 26.0157 42.1458L23.9649 40.0786ZM42.4806 22.2309L43.8727 23.6231L42.4806 25.0153L41.0884 23.6231L42.4806 22.2309ZM30.4688 16.0856C30.5385 16.0154 30.6274 15.9674 30.7244 15.9478C30.8213 15.9282 30.9219 15.9379 31.0134 15.9756C31.1048 16.0132 31.183 16.0772 31.2381 16.1594C31.2931 16.2416 31.3225 16.3382 31.3225 16.4372C31.3225 16.5361 31.2931 16.6327 31.2381 16.7149C31.183 16.7971 31.1048 16.8611 31.0134 16.8988C30.9219 16.9364 30.8213 16.9461 30.7244 16.9265C30.6274 16.9069 30.5385 16.8589 30.4688 16.7887C30.4226 16.7426 30.386 16.6878 30.361 16.6274C30.336 16.5671 30.3231 16.5025 30.3231 16.4372C30.3231 16.3719 30.336 16.3072 30.361 16.2469C30.386 16.1865 30.4226 16.1317 30.4688 16.0856ZM22.5938 22.5942C22.73 22.4574 22.8918 22.3489 23.0699 22.2748C23.2481 22.2008 23.4392 22.1627 23.6321 22.1627C23.8251 22.1627 24.0161 22.2008 24.1943 22.2748C24.3725 22.3489 24.5343 22.4574 24.6704 22.5942C24.8762 22.7996 25.0164 23.0615 25.0732 23.3466C25.1301 23.6317 25.1012 23.9273 24.99 24.196C24.8789 24.4646 24.6905 24.6943 24.4488 24.8558C24.2071 25.0174 23.9229 25.1037 23.6321 25.1037C23.3414 25.1037 23.0572 25.0174 22.8155 24.8558C22.5737 24.6943 22.3854 24.4646 22.2742 24.196C22.1631 23.9273 22.1341 23.6317 22.191 23.3466C22.2479 23.0615 22.3881 22.7996 22.5938 22.5942ZM16.7907 31.1723C16.695 31.2521 16.5729 31.2933 16.4485 31.2876C16.324 31.282 16.2061 31.23 16.118 31.1419C16.0299 31.0538 15.9779 30.9359 15.9723 30.8115C15.9667 30.687 16.0078 30.5649 16.0876 30.4692C16.1814 30.377 16.3076 30.3254 16.4392 30.3254C16.5707 30.3254 16.6969 30.377 16.7907 30.4692C16.8369 30.5153 16.8736 30.5701 16.8986 30.6305C16.9236 30.6908 16.9365 30.7555 16.9365 30.8208C16.9365 30.8861 16.9236 30.9507 16.8986 31.011C16.8736 31.0714 16.8369 31.1262 16.7907 31.1723ZM23.6321 43.859L22.2399 42.4669L23.6321 41.0747L25.0243 42.4669L23.6321 43.859Z" fill="#1CAF57"/>
</g>
<defs>
<clipPath id="clip0_1502_2523">
<rect width="30" height="30" fill="white" transform="translate(15 15)"/>
</clipPath>
</defs>
</svg>
