<svg width="60" height="60" viewBox="0 0 60 60" fill="none" xmlns="http://www.w3.org/2000/svg">
<rect opacity="0.1" width="60" height="60" rx="12" fill="#1CAF57"/>
<g clip-path="url(#clip0_1502_2522)">
<path d="M40.3998 38.2218C40.0478 37.4012 39.3696 36.7427 38.539 36.4152L33.4266 34.3993C33.3154 34.3554 33.2435 34.2499 33.2435 34.1303V32.5417C34.3383 31.7205 35.1311 30.6449 35.6044 29.337C35.7643 28.895 35.8874 28.4258 35.9742 27.9319C37.0887 27.8801 37.9795 26.9574 37.9795 25.8303C37.9795 25.6014 37.9412 25.3741 37.8686 25.1584C38.2094 24.9266 38.4336 24.5359 38.4336 24.0936V23.9859C38.4336 23.2763 37.8564 22.699 37.1468 22.699H36.8253V21.7265C36.8253 19.4231 35.577 17.3245 33.5606 16.221C33.5131 15.5398 32.9441 15 32.251 15C31.839 15 31.4708 15.191 31.2298 15.4888C31.0051 15.4647 30.7777 15.4523 30.5512 15.4523H29.5947C29.3264 15.4523 29.0564 15.4695 28.792 15.5033C28.7755 15.5054 28.7594 15.5085 28.7436 15.5124C28.5026 15.2349 28.1477 15.059 27.7523 15.059C27.0503 15.059 26.4752 15.6127 26.4408 16.3064C26.4226 16.3141 26.4048 16.3227 26.3874 16.333C24.4958 17.4602 23.3206 19.5268 23.3206 21.7264V22.699H22.886C22.1764 22.699 21.5991 23.2763 21.5991 23.9858V24.0936C21.5991 24.5495 21.8377 24.9506 22.1964 25.1792C22.1282 25.3884 22.0937 25.6066 22.0937 25.8303C22.0937 26.9334 22.9472 27.8403 24.0284 27.927C24.1139 28.4157 24.2348 28.8802 24.392 29.318C24.8641 30.6334 25.6583 31.7146 26.7568 32.5395V34.1303C26.7568 34.2498 26.6849 34.3554 26.5737 34.3993L21.4613 36.4152C20.6307 36.7427 19.9525 37.4012 19.6006 38.2219C18.8075 40.0713 18.4053 42.0294 18.4053 44.0418C18.4053 44.5701 18.8351 45 19.3635 45H34.2139C34.4584 45 34.6565 44.8018 34.6565 44.5574C34.6565 44.3129 34.4584 44.1148 34.2139 44.1148H30.1488V43.0242H31.0903C31.4892 43.0242 31.8137 42.6997 31.8137 42.3007V41.2124C31.8137 40.8134 31.4892 40.4889 31.0903 40.4889H30.1488V39.2413H32.2267C33.1806 39.2413 33.9567 38.4652 33.9567 37.5113V35.5598L34.7216 35.8614V38.1438C34.7216 38.8392 34.9848 39.5005 35.4628 40.0059L36.1323 40.7136C36.3026 40.8936 36.3964 41.1292 36.3964 41.3771V44.1148H35.9844C35.7399 44.1148 35.5417 44.3129 35.5417 44.5574C35.5417 44.8018 35.7399 45 35.9844 45H40.6369C41.1653 45 41.5951 44.5701 41.5951 44.0418C41.595 42.0294 41.1929 40.0712 40.3998 38.2218ZM27.6419 33.103C28.3793 33.4825 29.1903 33.673 30.0016 33.673C30.8119 33.673 31.6218 33.483 32.3583 33.1045V34.1051C32.3506 34.1134 32.3429 34.1217 32.3357 34.1307L32.0954 34.4336C31.585 35.0768 30.8213 35.4457 30.0001 35.4457C29.179 35.4457 28.4153 35.0768 27.9048 34.4336L27.6606 34.1259C27.6547 34.1184 27.6483 34.1116 27.6419 34.1046V33.103ZM36.0893 27.0292C36.1329 26.5031 36.1393 25.9529 36.108 25.3803H37.0085C37.0653 25.5226 37.0943 25.6734 37.0943 25.8302C37.0943 26.4292 36.6596 26.9276 36.0893 27.0292ZM35.9401 21.7264V22.699H33.5642V17.2578C35.0429 18.2539 35.9401 19.9167 35.9401 21.7264ZM31.8231 22.699V16.3722C31.8231 16.1362 32.015 15.9442 32.251 15.9442C32.487 15.9442 32.679 16.1362 32.679 16.3722V22.699H31.8231ZM29.5947 16.3376H30.5512C30.6801 16.3376 30.8092 16.3422 30.9378 16.3513V16.3722V22.699H29.0655V16.3722C29.0655 16.3693 29.0653 16.3664 29.0652 16.3634C29.2407 16.3464 29.4181 16.3376 29.5947 16.3376ZM24.2058 21.7264C24.2058 19.9981 25.051 18.3657 26.4391 17.3586V19.2384C26.4391 19.4829 26.6373 19.681 26.8817 19.681C27.1261 19.681 27.3243 19.4829 27.3243 19.2384V16.3722C27.3243 16.1362 27.5163 15.9442 27.7524 15.9442C27.9883 15.9442 28.1803 16.1362 28.1803 16.3722V22.699H27.3244V21.0088C27.3244 20.7644 27.1262 20.5662 26.8818 20.5662C26.6373 20.5662 26.4392 20.7644 26.4392 21.0088V22.699H24.2058V21.7264ZM22.4844 23.9858C22.4844 23.7644 22.6645 23.5842 22.886 23.5842H37.1469C37.3683 23.5842 37.5485 23.7644 37.5485 23.9858V24.0936C37.5485 24.315 37.3683 24.4951 37.1469 24.4951H22.886C22.6645 24.4951 22.4844 24.315 22.4844 24.0936V23.9858ZM22.979 25.8302C22.979 25.6741 23.0093 25.5232 23.0662 25.3803H23.895C23.8641 25.9474 23.8703 26.4925 23.9127 27.0141C23.3779 26.8851 22.979 26.404 22.979 25.8302ZM24.782 25.3803H35.2212C35.4046 28.5066 34.417 30.7774 32.2826 32.13C30.897 33.0081 29.1063 33.0081 27.7207 32.13C25.586 30.7772 24.5984 28.5065 24.782 25.3803ZM19.2904 44.0418C19.2904 42.1501 19.6685 40.3093 20.4141 38.5707C20.6735 37.9657 21.1736 37.4802 21.786 37.2387L24.3958 36.2096V38.1438C24.3958 38.6121 24.2186 39.0573 23.8968 39.3976L23.2274 40.1053C22.9009 40.4504 22.7211 40.902 22.7211 41.3771V44.1148H19.3635C19.3232 44.1148 19.2904 44.082 19.2904 44.0418ZM30.9285 42.139H27.5273V41.3741H30.9285V42.139ZM27.3655 40.4889C26.9666 40.4889 26.6421 40.8134 26.6421 41.2124V42.3007C26.6421 42.6997 26.9666 43.0242 27.3655 43.0242H29.2636V44.1148H23.6062V41.3771C23.6062 41.1293 23.7 40.8936 23.8704 40.7136L24.5398 40.0059C25.0177 39.5007 25.281 38.8393 25.281 38.1438C25.281 38.1438 25.2802 35.8701 25.2796 35.8611L26.0459 35.5589V37.5113C26.0459 38.4652 26.822 39.2413 27.7759 39.2413H29.2636V40.4889H27.3655ZM32.2267 38.3561H27.7759C27.3101 38.3561 26.9312 37.9771 26.9312 37.5113V35.2084C27.0452 35.1595 27.1484 35.0944 27.2387 35.0163C27.9178 35.8519 28.9214 36.331 30.0002 36.331C31.0789 36.331 32.0826 35.8519 32.7617 35.0163C32.8526 35.0949 32.9566 35.1604 33.0715 35.2094V37.5113C33.0715 37.9771 32.6925 38.3561 32.2267 38.3561ZM40.6369 44.1148H37.2816V41.3771C37.2816 40.902 37.1018 40.4503 36.7754 40.1053L36.1059 39.3976C35.7841 39.0573 35.6068 38.6121 35.6068 38.1438V36.2105L38.2143 37.2387C38.8267 37.4802 39.3268 37.9657 39.5863 38.5707C40.3318 40.3093 40.7099 42.15 40.7099 44.0418C40.7098 44.082 40.6771 44.1148 40.6369 44.1148Z" fill="#1CAF57"/>
</g>
<defs>
<clipPath id="clip0_1502_2522">
<rect width="30" height="30" fill="white" transform="translate(15 15)"/>
</clipPath>
</defs>
</svg>
