<svg width="60" height="60" viewBox="0 0 60 60" fill="none" xmlns="http://www.w3.org/2000/svg">
<rect opacity="0.1" width="60" height="60" rx="12" fill="#1CAF57"/>
<g clip-path="url(#clip0_1502_2527)">
<path d="M20.7218 40.5691C20.7122 40.5605 20.7023 40.5524 20.6921 40.5446C20.3863 40.2907 20.0804 40.0185 19.799 39.7371C19.6203 39.5603 19.3325 39.5603 19.1537 39.7371C18.9748 39.9163 18.9748 40.2064 19.1537 40.3855C19.4596 40.6914 19.7654 40.9758 20.1079 41.251C20.2963 41.4206 20.5863 41.4053 20.7559 41.2169C20.9253 41.0286 20.9101 40.7386 20.7218 40.5691Z" fill="#1CAF57"/>
<path d="M15.92 26.9682C15.6808 26.8846 15.4192 27.0108 15.3356 27.25C15.3232 27.2855 15.3152 27.3224 15.3118 27.3598C15.2201 27.7788 15.1497 28.2039 15.0977 28.629C15.065 28.8777 15.238 29.1065 15.4861 29.1428H15.5442C15.7765 29.143 15.9721 28.9697 16 28.7391C16.0489 28.3415 16.1162 27.9409 16.2018 27.5525C16.2854 27.3133 16.1591 27.0517 15.92 26.9682Z" fill="#1CAF57"/>
<path d="M18.4409 38.1377C18.2054 37.8135 17.9821 37.477 17.7772 37.1345C17.6477 36.9167 17.3662 36.8452 17.1484 36.9747C17.148 36.9749 17.1476 36.9752 17.1472 36.9755C16.9294 37.105 16.8579 37.3865 16.9874 37.6043C16.9876 37.6047 16.9878 37.6051 16.9882 37.6055C17.2084 37.9725 17.4469 38.3334 17.7008 38.679C17.8573 38.8783 18.1457 38.9128 18.3449 38.7563C18.5345 38.6074 18.5765 38.3371 18.4409 38.1377Z" fill="#1CAF57"/>
<path d="M16.8414 35.2452C16.6946 34.8751 16.5601 34.4928 16.4469 34.1074C16.3763 33.8641 16.1218 33.7241 15.8785 33.7946C15.8742 33.7959 15.87 33.7972 15.8658 33.7985C15.625 33.8721 15.4886 34.126 15.56 34.3674C15.6823 34.7772 15.823 35.1871 15.982 35.5908C16.0775 35.8281 16.3472 35.9431 16.5845 35.8477C16.8219 35.7523 16.9369 35.4825 16.8414 35.2452Z" fill="#1CAF57"/>
<path d="M17.1154 23.8236C16.8891 23.7096 16.6132 23.8006 16.4992 24.0269C16.3065 24.4092 16.1291 24.8038 15.9731 25.2044C15.8812 25.4392 15.9959 25.7042 16.23 25.7978C16.4656 25.891 16.7322 25.7757 16.8255 25.5402C16.8258 25.5394 16.8261 25.5386 16.8264 25.5378C16.9732 25.1647 17.1323 24.7946 17.3188 24.4398C17.4328 24.2135 17.3418 23.9376 17.1154 23.8236Z" fill="#1CAF57"/>
<path d="M16.0159 32.0535C16.0158 32.0531 16.0158 32.0527 16.0157 32.0523C15.9668 31.6547 15.9331 31.251 15.9178 30.8534C15.9086 30.6 15.6956 30.4022 15.4423 30.4114C15.1889 30.4207 14.9911 30.6336 15.0003 30.887C15.0003 31.3152 15.0492 31.7464 15.1043 32.1715C15.1356 32.3939 15.3234 32.5608 15.5478 32.5661H15.6181C15.8695 32.5344 16.0476 32.3048 16.0159 32.0535Z" fill="#1CAF57"/>
<path d="M28.1867 16.7496C28.1622 16.4962 27.9369 16.3107 27.6836 16.3352C27.2584 16.378 26.8303 16.4392 26.4082 16.5217C26.1548 16.5454 25.9686 16.7699 25.9923 17.0233C26.0159 17.2767 26.2404 17.4629 26.4938 17.4393L26.4908 17.427H26.5795C26.974 17.3506 27.3747 17.2925 27.7722 17.2527C28.0256 17.2282 28.2111 17.003 28.1867 16.7496Z" fill="#1CAF57"/>
<path d="M19.1074 21.0475C18.9166 20.8786 18.6249 20.8964 18.456 21.0873C18.1746 21.4084 17.9055 21.7479 17.6547 22.0966C17.506 22.3017 17.5518 22.5886 17.757 22.7372C17.835 22.7936 17.9285 22.8242 18.0247 22.8245V22.8306C18.1724 22.8311 18.3112 22.7605 18.3979 22.641C18.6334 22.3168 18.8841 21.9987 19.1472 21.699C19.3161 21.5081 19.2982 21.2165 19.1074 21.0475Z" fill="#1CAF57"/>
<path d="M31.21 16.4108C30.788 16.3466 30.3567 16.3007 29.9285 16.2762C29.6751 16.261 29.4575 16.4541 29.4422 16.7075C29.427 16.9609 29.6201 17.1785 29.8735 17.1938C30.2772 17.2243 30.6778 17.2672 31.0724 17.3283H31.1427C31.3961 17.3469 31.6166 17.1566 31.6351 16.9032C31.6537 16.6499 31.4634 16.4294 31.21 16.4108Z" fill="#1CAF57"/>
<path d="M21.7131 18.8616C21.5696 18.6667 21.2994 18.6168 21.0957 18.7476C20.744 18.9892 20.3984 19.2522 20.0681 19.5244C19.873 19.6866 19.8463 19.9762 20.0085 20.1713C20.1706 20.3664 20.4602 20.3931 20.6553 20.2309C20.9612 19.974 21.2853 19.7294 21.6156 19.503C21.8197 19.3529 21.8633 19.0657 21.7131 18.8616Z" fill="#1CAF57"/>
<path d="M24.8699 17.4165C24.8028 17.1722 24.5503 17.0285 24.306 17.0956C24.2845 17.1015 24.2635 17.109 24.243 17.1179C23.8424 17.2647 23.4417 17.4238 23.0564 17.6165C22.8266 17.7233 22.7271 17.9962 22.834 18.2259C22.9089 18.387 23.0702 18.4899 23.2476 18.4908C23.3138 18.4895 23.379 18.4742 23.4387 18.4453C23.7996 18.274 24.1727 18.118 24.5489 17.9804C24.7933 17.9133 24.937 17.6608 24.8699 17.4165Z" fill="#1CAF57"/>
<path d="M30.4159 43.9541C30.3999 43.7007 30.1815 43.5083 29.9281 43.5244C29.5275 43.555 29.1238 43.5641 28.7231 43.5519C28.4697 43.5452 28.2588 43.745 28.2521 43.9984C28.2454 44.2518 28.4453 44.4627 28.6986 44.4694H29.0871C29.3929 44.4694 29.6987 44.4694 29.9862 44.4419C30.2396 44.4259 30.432 44.2075 30.4159 43.9541Z" fill="#1CAF57"/>
<path d="M42.4233 33.3258C42.1776 33.2633 41.9277 33.4119 41.8652 33.6576C41.7673 34.046 41.648 34.4314 41.5135 34.8076C41.4337 35.0438 41.5573 35.3006 41.7918 35.3856C42.0303 35.4712 42.293 35.3472 42.3785 35.1087C42.3787 35.1082 42.3788 35.1078 42.379 35.1073C42.5227 34.7036 42.6481 34.2907 42.7552 33.8839C42.8177 33.6382 42.6691 33.3883 42.4233 33.3258Z" fill="#1CAF57"/>
<path d="M43.0088 28.0726C42.9385 27.6505 42.8498 27.2254 42.7427 26.8125C42.6695 26.57 42.4134 26.4327 42.1709 26.5061C41.941 26.5755 41.8036 26.8105 41.8558 27.045C41.9567 27.4303 42.0393 27.8279 42.1066 28.2224C42.1461 28.4386 42.3334 28.5963 42.5531 28.5986H42.6296C42.8795 28.558 43.0493 28.3226 43.0088 28.0726Z" fill="#1CAF57"/>
<path d="M44.9589 22.8073C44.9373 22.7604 44.9078 22.7177 44.8716 22.681L44.0612 21.8369C43.9451 21.7209 43.7745 21.6786 43.6177 21.7268L42.1558 22.1702L40.4431 20.3535L44.2875 18.2127C44.5115 18.1095 44.6095 17.8443 44.5062 17.6203C44.4847 17.5734 44.4552 17.5307 44.419 17.494L43.3394 16.4144C43.2217 16.3013 43.0517 16.2614 42.8959 16.3104L38.0239 17.7846L36.3846 16.0443C35.9668 15.5612 35.2867 15.3998 34.6963 15.6437H34.6688C34.2237 15.8269 33.8703 16.1803 33.6871 16.6254C33.6409 16.7416 33.6081 16.8627 33.5892 16.9863L33.4026 16.9221C33.1611 16.8444 32.9023 16.9772 32.8246 17.2187C32.7469 17.4603 32.8797 17.7191 33.1213 17.7968C33.3568 17.8732 33.5923 17.9589 33.8278 18.0476C33.8986 18.1584 33.9817 18.2611 34.0755 18.3534L35.8035 19.9927L35.308 21.629C30.4621 18.1723 23.7316 19.2985 20.2749 24.1443C16.8182 28.9902 17.9444 35.7207 22.7903 39.1774C27.6362 42.6341 34.3667 41.5079 37.8234 36.662C40.5799 32.7976 40.4838 27.5848 37.5865 23.8248L38.3695 22.4118L40.1862 24.1245L39.7488 25.5712C39.6961 25.7301 39.7376 25.9052 39.8559 26.0238C39.8559 26.0238 40.752 26.9107 40.7734 26.9413C40.9853 27.0641 41.2566 26.9919 41.3795 26.7801C41.3814 26.7768 41.3833 26.7734 41.3851 26.7701L42.5809 24.5772L44.7401 23.3997C44.9642 23.2965 45.0621 23.0312 44.9589 22.8073ZM22.1232 23.4119C23.9671 21.5689 26.468 20.5346 29.075 20.537C29.2789 20.537 29.4828 20.5431 29.6867 20.5553C31.4208 22.1549 30.91 23.6137 29.7478 24.9288C29.062 25.6562 28.3262 26.3348 27.5458 26.9596C26.4172 27.9199 25.3652 28.816 24.9676 29.7122C24.4966 30.7765 24.8422 31.7399 26.7445 32.5809C27.6957 33.003 28.2125 33.3302 28.4144 33.578C28.4174 33.5816 28.4203 33.5841 28.4232 33.5863C28.417 33.5882 28.4106 33.5903 28.4021 33.5933C27.9416 33.7687 27.4513 33.8528 26.9586 33.841C24.6525 33.9389 23.0102 32.4647 21.7348 31.3239C20.8173 30.5073 20.0558 29.8284 19.2636 29.8223C19.3945 27.4062 20.4129 25.1234 22.1232 23.4119ZM38.9414 30.3789H38.9445C38.9431 34.6415 36.2028 38.4206 32.1517 39.7468C32.038 39.03 32.1706 38.2957 32.5279 37.664C33.0125 36.8857 33.6343 36.2019 34.363 35.6455C37.1859 33.2905 37.3449 31.9754 37.4673 30.963C37.5437 30.3238 37.6018 29.8467 38.8649 29.1525C38.9156 29.5593 38.9412 29.9689 38.9414 30.3789ZM38.3725 27.0697C38.5092 27.4548 38.6216 27.8481 38.709 28.2472C36.7852 29.2259 36.6996 29.9232 36.5834 30.8744C36.4794 31.7307 36.3448 32.8501 33.7941 34.9787C32.9771 35.6038 32.2825 36.3741 31.745 37.2511C31.2764 38.0795 31.114 39.0462 31.2862 39.9823C25.9807 41.1951 20.6967 37.8773 19.4838 32.5719C19.3451 31.9651 19.2643 31.3466 19.2422 30.7245C19.7285 30.7245 20.3585 31.3025 21.1323 31.9907C22.5331 33.2416 24.3253 34.838 26.9953 34.7432C27.6244 34.7541 28.249 34.6354 28.8303 34.3946C29.0754 34.2862 29.2609 34.0762 29.338 33.8196C29.4032 33.5334 29.3205 33.2336 29.1178 33.0213C28.8303 32.6696 28.2003 32.2537 27.1176 31.7705C25.8239 31.1985 25.5425 30.6419 25.7964 30.0731C26.1022 29.3574 27.087 28.5439 28.133 27.6263C28.9481 26.9676 29.7156 26.2523 30.4299 25.4855C31.7083 24.0297 32.3658 22.4423 31.066 20.7052C32.5106 21.0005 33.8697 21.6184 35.0419 22.5127L34.3385 24.834C34.2866 24.993 34.3279 25.1678 34.4456 25.2867C34.4456 25.2867 35.5863 26.4183 35.623 26.4397C35.8349 26.5625 36.1063 26.4903 36.2291 26.2784C36.231 26.2751 36.2329 26.2718 36.2347 26.2684L37.1247 24.6597C37.6501 25.4015 38.07 26.2126 38.3725 27.0697ZM42.4739 23.6535L42.0793 23.8492C41.991 23.893 41.9199 23.9651 41.8775 24.0541L41.6817 24.4517L40.9202 25.828L40.6969 25.5833L41.1404 24.1183C41.1921 23.9467 41.1353 23.7609 40.9966 23.6474L38.5836 21.375C38.4089 21.2033 38.1281 21.2058 37.9564 21.3805C37.9523 21.3847 37.9483 21.389 37.9444 21.3933C37.9138 21.427 35.7423 25.3386 35.7423 25.3386L35.2683 24.8646L36.7485 19.9864C36.8016 19.8139 36.7447 19.6264 36.6048 19.5124L34.6841 17.7049C34.4715 17.5248 34.4009 17.2273 34.5098 16.9709C34.6073 16.7487 34.7855 16.5717 35.0083 16.4754H35.0236C35.2769 16.3776 35.5643 16.4513 35.7393 16.6589L37.5743 18.5979C37.6895 18.7216 37.8651 18.7691 38.0269 18.7203L42.9204 17.2431L43.3944 17.7171L39.5103 19.8519C39.2953 19.9692 39.216 20.2386 39.3334 20.4535C39.3352 20.4569 39.3371 20.4602 39.339 20.4636C39.3573 20.4972 41.697 22.9867 41.697 22.9867C41.8129 23.1094 41.9884 23.1556 42.1497 23.106L43.6208 22.6625L43.8501 22.8919L42.4739 23.6535Z" fill="#1CAF57"/>
<path d="M41.2921 36.5499C41.2854 36.546 41.2786 36.5421 41.2717 36.5386C41.0525 36.424 40.7819 36.5038 40.6601 36.7191C40.4674 37.0708 40.2564 37.4164 40.03 37.7467C39.8839 37.9544 39.9339 38.2413 40.1417 38.3874C40.3494 38.5335 40.6363 38.4835 40.7824 38.2758C41.0209 37.921 41.2473 37.5509 41.4552 37.1778C41.5836 36.9593 41.5105 36.6782 41.2921 36.5499Z" fill="#1CAF57"/>
<path d="M42.7435 29.8526C42.4902 29.8491 42.282 30.0517 42.2785 30.305C42.2784 30.3112 42.2784 30.3174 42.2786 30.3236V30.3756C42.2786 30.7762 42.2603 31.1799 42.2236 31.5806C42.2007 31.8329 42.3865 32.0561 42.6388 32.079C42.6391 32.079 42.6393 32.0791 42.6395 32.0791H42.6824C42.9243 32.0814 43.1264 31.8953 43.1442 31.654C43.1839 31.2289 43.2023 30.7976 43.2023 30.3695V30.3083C43.2006 30.0561 42.9957 29.8526 42.7435 29.8526Z" fill="#1CAF57"/>
<path d="M26.6342 43.3216C26.2366 43.2543 25.8421 43.1687 25.4598 43.0525C25.2207 42.9684 24.9589 43.0941 24.8748 43.3331C24.7907 43.5721 24.9164 43.834 25.1554 43.9181C25.1729 43.9243 25.1908 43.9293 25.209 43.9334C25.6188 44.0496 26.0408 44.1505 26.4629 44.2392H26.5485C26.8019 44.2628 27.0265 44.0767 27.0501 43.8233C27.0737 43.5699 26.8876 43.3453 26.6342 43.3216Z" fill="#1CAF57"/>
<path d="M33.7331 43.1831C33.6502 42.9579 33.4076 42.8346 33.1768 42.9005V42.9128C32.7975 43.0382 32.406 43.1452 32.0176 43.2186C31.7702 43.2743 31.6148 43.5202 31.6705 43.7676C31.7262 44.015 31.9721 44.1705 32.2195 44.1147C32.6354 44.0199 33.0544 43.9037 33.4612 43.7722C33.699 43.6846 33.8207 43.4208 33.7331 43.1831Z" fill="#1CAF57"/>
<path d="M23.4876 42.3217C23.1237 42.1413 22.7659 41.9455 22.4203 41.7498C22.2015 41.6214 21.9201 41.6946 21.7918 41.9134C21.6634 42.1322 21.7366 42.4135 21.9554 42.5419C22.3255 42.7591 22.7078 42.9609 23.0962 43.1536C23.3259 43.2617 23.5997 43.1631 23.7079 42.9334C23.816 42.7037 23.7174 42.4298 23.4876 42.3217Z" fill="#1CAF57"/>
<path d="M39.3435 39.371C39.1597 39.2031 38.8755 39.2125 38.7032 39.3921H38.7063C38.431 39.698 38.1405 39.9671 37.8438 40.2332C37.6546 40.4021 37.6382 40.6924 37.8071 40.8816C37.976 41.0707 38.2663 41.0872 38.4555 40.9183C38.7613 40.6339 39.0855 40.3311 39.373 40.0191C39.5439 39.8319 39.5306 39.5418 39.3435 39.371Z" fill="#1CAF57"/>
<path d="M36.8123 41.659C36.6823 41.4415 36.4006 41.3706 36.1831 41.5006C36.1758 41.505 36.1686 41.5096 36.1615 41.5144V41.5021C35.8251 41.7162 35.4734 41.9181 35.1186 42.1138C34.8932 42.2295 34.8042 42.5061 34.9198 42.7316C35.0355 42.9571 35.3122 43.0461 35.5376 42.9304C35.9169 42.7347 36.2931 42.5175 36.6539 42.2881C36.8714 42.1581 36.9424 41.8764 36.8123 41.659Z" fill="#1CAF57"/>
</g>
<defs>
<clipPath id="clip0_1502_2527">
<rect width="30" height="30" fill="white" transform="translate(15 15)"/>
</clipPath>
</defs>
</svg>
