<svg width="60" height="60" viewBox="0 0 60 60" fill="none" xmlns="http://www.w3.org/2000/svg">
<rect opacity="0.1" width="59.9722" height="60" rx="12" fill="#1CAF57"/>
<path d="M20.3219 22.2668C21.0938 22.2668 21.7219 21.6387 21.7219 20.8668C21.7219 20.0949 21.0938 19.4668 20.3219 19.4668C19.55 19.4668 18.9219 20.0949 18.9219 20.8668C18.9219 21.6387 19.5501 22.2668 20.3219 22.2668ZM20.3219 20.2668C20.6528 20.2668 20.9219 20.5359 20.9219 20.8668C20.9219 21.1977 20.6528 21.4668 20.3219 21.4668C19.991 21.4668 19.7219 21.1977 19.7219 20.8668C19.7219 20.5359 19.9911 20.2668 20.3219 20.2668Z" fill="#1CAF57"/>
<path d="M41.9218 18.4141C41.6717 18.4141 41.4688 18.6169 41.4688 18.8671C41.4688 19.1172 41.6716 19.32 41.9218 19.32C42.172 19.32 42.3748 19.1172 42.3748 18.8671C42.3748 18.6169 42.172 18.4141 41.9218 18.4141V18.4141Z" fill="#1CAF57"/>
<path d="M37.1396 19.8848C37.2958 19.7286 37.2958 19.4754 37.1396 19.3192L36.6877 18.8672L37.1396 18.4152C37.2958 18.259 37.2958 18.0058 37.1396 17.8496C36.9835 17.6934 36.7303 17.6934 36.5741 17.8496L36.1221 18.3016L35.6701 17.8496C35.5139 17.6934 35.2607 17.6934 35.1045 17.8496C34.9483 18.0058 34.9483 18.259 35.1045 18.4152L35.5565 18.8672L35.1045 19.3192C34.9483 19.4754 34.9483 19.7286 35.1045 19.8848C35.1826 19.9629 35.285 20.002 35.3873 20.002C35.4896 20.002 35.592 19.9629 35.6701 19.8848L36.1221 19.4328L36.5741 19.8848C36.6522 19.9629 36.7546 20.002 36.8569 20.002C36.9592 20.002 37.0615 19.9629 37.1396 19.8848V19.8848Z" fill="#1CAF57"/>
<path d="M34.1103 34.7865L32.5402 34.0728L30.9224 33.3374V33.0032C32.4524 32.2713 33.6156 30.9088 34.0876 29.2667C34.3458 29.2767 34.5981 29.2021 34.8399 29.0515C35.2112 28.8203 35.4622 28.4433 35.5116 28.0433C35.5608 27.6425 35.437 27.2406 35.1714 26.9404C34.9963 26.7424 34.7701 26.602 34.5219 26.5279C34.5219 26.5279 34.5152 26.222 34.5143 26.1964C34.9831 26.033 35.3224 25.5913 35.3224 25.0676C35.3224 24.7143 35.1661 24.3995 34.9224 24.1797V24.0676C34.9224 20.8696 32.3204 18.2676 29.1224 18.2676H28.7224C25.5244 18.2676 22.9224 20.8696 22.9224 24.0676V24.1797C22.6787 24.3995 22.5224 24.7143 22.5224 25.0676C22.5224 25.7293 23.0607 26.2676 23.7224 26.2676H23.7499C23.7518 26.3662 23.7529 26.4528 23.7529 26.5164C23.5125 26.5816 23.2933 26.7107 23.115 26.8953C22.8488 27.1711 22.7097 27.5344 22.7232 27.9185C22.7386 28.3464 22.9814 28.7595 23.3728 29.0238C23.6203 29.1908 23.874 29.2738 24.1376 29.2677C24.5559 30.7963 25.5706 32.0789 26.9243 32.8578C26.9242 32.8612 26.9223 32.864 26.9223 32.8675V33.3372L25.3043 34.0728C25.3042 34.0728 25.3041 34.073 25.304 34.073L23.7344 34.7862C22.2692 35.4522 21.3223 36.9401 21.3223 38.5772V41.8674C21.3223 42.0883 21.5014 42.2674 21.7223 42.2674H36.1223C36.3432 42.2674 36.5223 42.0883 36.5223 41.8674V38.5772C36.5224 36.9402 35.5756 35.4523 34.1103 34.7865V34.7865ZM30.7925 34.157L31.8545 34.6399L30.8326 37.0538L29.6078 35.339C30.1565 35.1371 30.5896 34.7051 30.7925 34.157V34.157ZM33.6934 26.2676C33.6925 26.3346 33.6918 26.399 33.6916 26.4551C31.8811 27.4543 30.0223 26.8908 28.8099 26.2676H33.6934ZM28.7224 19.0676H29.1224C31.8119 19.0676 34.0061 21.2037 34.1123 23.8676H23.7326C23.8387 21.2036 26.0329 19.0676 28.7224 19.0676ZM23.3224 25.0676C23.3224 24.8471 23.5019 24.6676 23.7224 24.6676H34.1224C34.3429 24.6676 34.5224 24.8471 34.5224 25.0676C34.5224 25.2881 34.3429 25.4676 34.1224 25.4676H23.7224C23.5019 25.4676 23.3224 25.2881 23.3224 25.0676ZM24.8314 28.7311C24.8084 28.6188 24.7384 28.5217 24.639 28.4647C24.5398 28.4075 24.4212 28.3959 24.312 28.4323C24.1577 28.4844 24.0149 28.4923 23.8202 28.3608C23.6429 28.2409 23.5288 28.0604 23.5227 27.8901C23.5168 27.7251 23.5764 27.5692 23.6905 27.451C23.8048 27.3326 23.9581 27.2676 24.1223 27.2676C24.2303 27.2676 24.3383 27.2217 24.4137 27.1442C24.4432 27.1138 24.4668 27.0839 24.4861 27.0474C24.5077 27.051 24.5288 27.0583 24.5508 27.0583C24.585 27.0583 24.6194 27.054 24.6529 27.045C25.0927 26.9288 25.5613 26.677 26.0455 26.297C26.056 26.2887 26.061 26.2768 26.0705 26.2677H27.2819C27.9662 26.7647 29.6316 27.8058 31.5752 27.8058C32.3387 27.8058 33.1449 27.6433 33.9502 27.2251C34.0044 27.2508 34.0624 27.2677 34.1223 27.2677C34.2942 27.2677 34.458 27.3415 34.5721 27.4704C34.6875 27.6011 34.7391 27.7698 34.7174 27.9458C34.6975 28.1083 34.585 28.2679 34.417 28.3726C34.2486 28.4777 34.1059 28.4943 33.9242 28.43C33.8162 28.3919 33.6967 28.4017 33.5965 28.4577C33.4963 28.5136 33.4248 28.6098 33.4004 28.722C33.0106 30.5103 31.6887 31.9712 29.9508 32.5345L29.7729 32.5921C29.2833 32.7507 28.7618 32.7571 28.3049 32.6103C26.5363 32.0406 25.2053 30.5543 24.8314 28.7311V28.7311ZM28.0599 33.3717C28.3628 33.4692 28.6783 33.5178 28.9976 33.5178C29.3371 33.5178 29.681 33.4627 30.0195 33.3532L30.1224 33.3199V33.4677C30.1224 34.1294 29.5841 34.6677 28.9224 34.6677C28.2607 34.6677 27.7224 34.1294 27.7224 33.4677V33.2391C27.8351 33.283 27.9439 33.3343 28.0599 33.3717V33.3717ZM27.0524 34.1569C27.2553 34.705 27.6884 35.1371 28.2371 35.3389L27.0123 37.0537L25.9904 34.6398L27.0524 34.1569ZM22.1224 38.5773C22.1224 37.2533 22.8851 36.0511 24.0654 35.5146L25.2618 34.9708L26.5541 38.0234C26.6105 38.1568 26.7346 38.2492 26.8785 38.2652C26.8933 38.2668 26.908 38.2675 26.9224 38.2675C27.0507 38.2675 27.1724 38.2058 27.248 38.0999L28.5224 36.3157V41.4675H24.9224V39.8675C24.9224 39.6466 24.7433 39.4675 24.5224 39.4675C24.3015 39.4675 24.1224 39.6466 24.1224 39.8675V41.4675H22.1224V38.5773ZM35.7224 41.4676H34.1224V39.8676C34.1224 39.6467 33.9433 39.4676 33.7224 39.4676C33.5015 39.4676 33.3224 39.6467 33.3224 39.8676V41.4676H29.3224V36.3158L30.5968 38.1C30.6724 38.2059 30.7941 38.2676 30.9224 38.2676C30.9369 38.2676 30.9515 38.2668 30.9663 38.2653C31.1102 38.2493 31.2343 38.1569 31.2907 38.0235L32.583 34.971L33.7794 35.5149C34.9597 36.0512 35.7224 37.2534 35.7224 38.5774V41.4676Z" fill="#1CAF57"/>
<path d="M31.1217 28.8674C31.3426 28.8674 31.5217 28.6883 31.5217 28.4674C31.5217 28.2465 31.3426 28.0674 31.1217 28.0674C30.9008 28.0674 30.7217 28.2465 30.7217 28.4674C30.7217 28.6883 30.9008 28.8674 31.1217 28.8674Z" fill="#1CAF57"/>
<path d="M27.1217 28.8674C27.3426 28.8674 27.5217 28.6883 27.5217 28.4674C27.5217 28.2465 27.3426 28.0674 27.1217 28.0674C26.9008 28.0674 26.7217 28.2465 26.7217 28.4674C26.7217 28.6883 26.9008 28.8674 27.1217 28.8674Z" fill="#1CAF57"/>
<path d="M28.2085 22.2317L28.6942 22.2475L28.1665 22.786C28.012 22.9436 28.0145 23.1969 28.1724 23.3516C28.2501 23.4278 28.3513 23.4659 28.4523 23.4659C28.556 23.4659 28.6597 23.4259 28.738 23.3458L29.9028 22.1571C30.0137 22.0438 30.0473 21.8757 29.9883 21.7282C29.9291 21.5809 29.7887 21.4825 29.6299 21.4774L29.0338 21.4581L29.6254 20.7204C29.7635 20.5481 29.7359 20.2964 29.5635 20.1581C29.3916 20.0202 29.1395 20.0477 29.0012 20.22L27.9092 21.5817C27.8145 21.6999 27.7946 21.8614 27.8578 21.9991C27.9214 22.1368 28.0569 22.2269 28.2085 22.2317V22.2317Z" fill="#1CAF57"/>
<path d="M40.6627 23.0519C40.5941 22.9187 40.4568 22.8349 40.307 22.8349H39.6338L40.1242 20.137C40.1584 19.9493 40.0551 19.7634 39.8773 19.6934C39.6992 19.6225 39.4972 19.6883 39.3941 19.8493L36.8009 23.8831C36.7218 24.0061 36.7161 24.1626 36.7863 24.2909C36.8564 24.4194 36.9912 24.4993 37.1375 24.4993H38.007L37.0496 27.1319C36.9812 27.3198 37.0623 27.5294 37.2392 27.6225C37.2984 27.6537 37.3622 27.6686 37.4253 27.6686C37.5509 27.6686 37.6735 27.6094 37.7509 27.501L40.6323 23.4672C40.7195 23.3455 40.7312 23.1852 40.6627 23.0519ZM38.8023 24.6531L38.9541 24.2361C38.9986 24.1134 38.9807 23.9767 38.9057 23.8699C38.8309 23.7631 38.7086 23.6994 38.5782 23.6994H37.8702L38.9764 21.9787L38.761 23.1635C38.7397 23.2801 38.7715 23.4002 38.8475 23.4912C38.9235 23.5822 39.036 23.635 39.1545 23.635H39.5297L38.8023 24.6531Z" fill="#1CAF57"/>
<path d="M21.3221 34.9221C21.3723 34.8628 21.4104 34.7923 21.4192 34.7098L21.5087 33.8641C21.5347 33.6202 21.6333 33.4125 21.786 33.2791C22.3163 32.8168 22.6204 32.1541 22.6204 31.4609C22.6204 30.1152 21.4997 29.0205 20.1222 29.0205C18.7447 29.0205 17.624 30.1152 17.624 31.4609C17.624 32.1541 17.9281 32.8168 18.4584 33.2791C18.6111 33.4125 18.7098 33.6201 18.7355 33.8639L18.8251 34.7098C18.8339 34.7923 18.8719 34.8628 18.9222 34.9221V35.4676C18.9222 36.1293 19.4605 36.6676 20.1222 36.6676C20.7839 36.6676 21.3222 36.1293 21.3222 35.4676V34.9221H21.3221ZM18.4239 31.4609C18.4239 30.5564 19.1858 29.8205 20.1221 29.8205C21.0584 29.8205 21.8203 30.5564 21.8203 31.4609C21.8203 31.9228 21.6162 32.3658 21.2601 32.6763C20.9548 32.9425 20.7605 33.3343 20.713 33.7794L20.6614 34.2675H20.5219V32.4332L21.2047 31.7504C21.3609 31.5942 21.3609 31.341 21.2047 31.1848C21.0485 31.0286 20.7953 31.0286 20.6391 31.1848L20.0865 31.7374L19.6236 31.2051C19.4787 31.0385 19.2263 31.0205 19.0593 31.1658C18.8927 31.3107 18.8749 31.5633 19.02 31.7301L19.7218 32.5371V34.2676H19.5823L19.5305 33.7793C19.4832 33.3344 19.2889 32.9426 18.9836 32.6764C18.628 32.3658 18.4239 31.9229 18.4239 31.4609V31.4609ZM20.5221 35.4676C20.5221 35.6881 20.3426 35.8676 20.1221 35.8676C19.9016 35.8676 19.7221 35.6881 19.7221 35.4676V35.0676H20.5221V35.4676Z" fill="#1CAF57"/>
<path d="M40.9222 35.4676H40.1222V32.0332L41.205 30.9504C41.3181 30.8373 41.353 30.6676 41.2937 30.519L40.4937 28.519C40.4328 28.3672 40.2857 28.2676 40.1222 28.2676H39.3222C39.1587 28.2676 39.0117 28.3672 38.9507 28.519L38.1507 30.519C38.0911 30.6682 38.1265 30.8387 38.2405 30.9518L39.3221 32.0236V35.4676H38.5221C38.3012 35.4676 38.1221 35.6467 38.1221 35.8676V40.6676C38.1221 41.5498 38.8399 42.2676 39.7221 42.2676C40.6043 42.2676 41.3221 41.5498 41.3221 40.6676V35.8676C41.3222 35.6467 41.1431 35.4676 40.9222 35.4676V35.4676ZM39.5931 29.0676H39.8513L40.4529 30.5713L39.7263 31.2977L38.9921 30.5702L39.5931 29.0676ZM40.5222 40.6676C40.5222 41.1088 40.1634 41.4676 39.7222 41.4676C39.281 41.4676 38.9222 41.1088 38.9222 40.6676V36.2676H40.5222V40.6676Z" fill="#1CAF57"/>
<path d="M32.5221 39.0674H30.5221C30.3012 39.0674 30.1221 39.2465 30.1221 39.4674C30.1221 39.6883 30.3012 39.8674 30.5221 39.8674H32.5221C32.743 39.8674 32.9221 39.6883 32.9221 39.4674C32.9221 39.2465 32.743 39.0674 32.5221 39.0674Z" fill="#1CAF57"/>
</svg>
