<svg width="60" height="60" viewBox="0 0 60 60" fill="none" xmlns="http://www.w3.org/2000/svg">
<rect opacity="0.1" width="60" height="60" rx="12" fill="#1CAF57"/>
<path d="M34.2521 35.1982H32.3619C32.2367 35.1982 32.1165 35.248 32.028 35.3366C31.9394 35.4251 31.8896 35.5453 31.8896 35.6705V37.559C31.8896 37.6211 31.9017 37.6825 31.9254 37.7399C31.9491 37.7973 31.9839 37.8494 32.0278 37.8933C32.0716 37.9372 32.1237 37.9721 32.181 37.9958C32.2384 38.0196 32.2998 38.0318 32.3619 38.0318H34.2521C34.3775 38.0318 34.4978 37.982 34.5865 37.8933C34.6752 37.8047 34.725 37.6844 34.725 37.559V35.6705C34.725 35.6084 34.7127 35.547 34.689 35.4896C34.6652 35.4323 34.6304 35.3802 34.5864 35.3364C34.5425 35.2925 34.4904 35.2577 34.433 35.234C34.3757 35.2103 34.3142 35.1982 34.2521 35.1982ZM33.7799 37.0902H32.8348V36.1434H33.7799V37.0902Z" fill="#1CAF57"/>
<path d="M38.9785 35.1982H37.09C37.028 35.1982 36.9665 35.2103 36.9091 35.234C36.8518 35.2577 36.7996 35.2925 36.7557 35.3364C36.7118 35.3802 36.677 35.4323 36.6532 35.4896C36.6294 35.547 36.6172 35.6084 36.6172 35.6705V37.559C36.617 37.6212 36.629 37.6829 36.6527 37.7405C36.6763 37.7981 36.7111 37.8504 36.7551 37.8945C36.799 37.9386 36.8512 37.9736 36.9087 37.9974C36.9662 38.0213 37.0278 38.0336 37.09 38.0336H38.9803C39.0423 38.0336 39.1038 38.0214 39.1611 37.9976C39.2185 37.9738 39.2706 37.939 39.3144 37.8951C39.3583 37.8511 39.3931 37.799 39.4168 37.7417C39.4405 37.6843 39.4526 37.6228 39.4525 37.5607V35.6705C39.4525 35.6083 39.4403 35.5468 39.4164 35.4894C39.3926 35.432 39.3576 35.3798 39.3136 35.3359C39.2696 35.2921 39.2173 35.2573 39.1598 35.2337C39.1023 35.2101 39.0407 35.198 38.9785 35.1982ZM38.5057 37.0902H37.5588V36.1434H38.5039L38.5057 37.0902Z" fill="#1CAF57"/>
<path d="M22.9096 38.0336C22.972 38.0338 23.0338 38.0217 23.0915 37.9979C23.1492 37.9742 23.2016 37.9392 23.2457 37.8951C23.2898 37.851 23.3248 37.7986 23.3485 37.7409C23.3723 37.6832 23.3844 37.6214 23.3842 37.559V35.6705C23.3842 35.6084 23.372 35.547 23.3482 35.4896C23.3244 35.4323 23.2896 35.3802 23.2457 35.3364C23.2017 35.2925 23.1496 35.2577 23.0922 35.234C23.0349 35.2103 22.9734 35.1982 22.9113 35.1982H21.0211C20.8958 35.1982 20.7757 35.248 20.6872 35.3366C20.5986 35.4251 20.5488 35.5453 20.5488 35.6705V37.559C20.5488 37.6211 20.5609 37.6825 20.5846 37.7399C20.6083 37.7973 20.6431 37.8494 20.6869 37.8933C20.7308 37.9372 20.7829 37.9721 20.8402 37.9958C20.8976 38.0196 20.959 38.0318 21.0211 38.0318L22.9096 38.0336ZM21.4922 36.1434H22.4408V37.0902H21.4939L21.4922 36.1434Z" fill="#1CAF57"/>
<path d="M25.7473 38.0336H27.6375C27.6996 38.0336 27.761 38.0214 27.8184 37.9976C27.8757 37.9738 27.9278 37.939 27.9717 37.8951C28.0155 37.8512 28.0503 37.799 28.074 37.7417C28.0977 37.6843 28.1098 37.6228 28.1098 37.5608V35.6705C28.1098 35.5453 28.06 35.4251 27.9714 35.3366C27.8829 35.248 27.7628 35.1982 27.6375 35.1982H25.7473C25.6852 35.1982 25.6237 35.2103 25.5664 35.234C25.509 35.2577 25.4569 35.2925 25.4129 35.3364C25.369 35.3802 25.3342 35.4323 25.3104 35.4896C25.2867 35.547 25.2744 35.6084 25.2744 35.6705V37.559C25.2742 37.6212 25.2862 37.6829 25.3099 37.7405C25.3336 37.7981 25.3684 37.8504 25.4123 37.8945C25.4562 37.9386 25.5084 37.9736 25.5659 37.9974C25.6234 38.0213 25.685 38.0336 25.7473 38.0336ZM26.2195 36.1434H27.1647V37.0902H26.2195V36.1434Z" fill="#1CAF57"/>
<path d="M21.0211 34.2523H22.9096C22.9716 34.2524 23.0331 34.2403 23.0905 34.2166C23.1478 34.1929 23.2 34.1581 23.2439 34.1142C23.2878 34.0704 23.3226 34.0183 23.3464 33.9609C23.3702 33.9036 23.3824 33.8422 23.3824 33.7801V31.8898C23.3824 31.7644 23.3326 31.6442 23.2439 31.5555C23.1552 31.4668 23.035 31.417 22.9096 31.417H21.0211C20.959 31.417 20.8976 31.4292 20.8402 31.453C20.7829 31.4768 20.7308 31.5116 20.6869 31.5555C20.6431 31.5994 20.6083 31.6516 20.5846 31.7089C20.5609 31.7663 20.5488 31.8278 20.5488 31.8898V33.7801C20.5488 33.9053 20.5986 34.0255 20.6872 34.114C20.7757 34.2026 20.8958 34.2523 21.0211 34.2523ZM21.4939 32.3621H22.4408V33.3072H21.4939V32.3621Z" fill="#1CAF57"/>
<path d="M25.7473 34.2523H27.6375C27.7628 34.2523 27.8829 34.2026 27.9714 34.114C28.06 34.0255 28.1098 33.9053 28.1098 33.7801V31.8898C28.1099 31.8278 28.0977 31.7663 28.074 31.7089C28.0503 31.6516 28.0155 31.5994 27.9717 31.5555C27.9278 31.5116 27.8757 31.4768 27.8184 31.453C27.761 31.4292 27.6996 31.417 27.6375 31.417H25.7473C25.6219 31.417 25.5016 31.4668 25.4129 31.5555C25.3242 31.6442 25.2744 31.7644 25.2744 31.8898V33.7801C25.2744 33.8422 25.2866 33.9036 25.3104 33.9609C25.3342 34.0183 25.369 34.0704 25.4129 34.1142C25.4569 34.1581 25.509 34.1929 25.5664 34.2166C25.6237 34.2403 25.6852 34.2524 25.7473 34.2523ZM26.2195 32.3621H27.1647V33.3072H26.2195V32.3621Z" fill="#1CAF57"/>
<path d="M21.0211 30.4725H22.9096C22.9718 30.4728 23.0335 30.4608 23.091 30.4372C23.1486 30.4136 23.2009 30.3789 23.245 30.335C23.2891 30.2911 23.3241 30.2389 23.348 30.1815C23.3719 30.124 23.3842 30.0624 23.3842 30.0002V28.11C23.3842 28.0479 23.372 27.9864 23.3482 27.9291C23.3244 27.8718 23.2896 27.8197 23.2457 27.7758C23.2017 27.732 23.1496 27.6972 23.0922 27.6735C23.0349 27.6498 22.9734 27.6376 22.9113 27.6377H21.0211C20.8958 27.6377 20.7757 27.6875 20.6872 27.776C20.5986 27.8646 20.5488 27.9847 20.5488 28.11V30.0002C20.5488 30.0622 20.561 30.1236 20.5848 30.1809C20.6085 30.2382 20.6433 30.2903 20.6872 30.3342C20.731 30.378 20.7831 30.4128 20.8404 30.4365C20.8977 30.4603 20.9591 30.4725 21.0211 30.4725ZM21.4939 28.5828H22.4408V29.5279H21.4939V28.5828Z" fill="#1CAF57"/>
<path d="M25.7473 30.4725H27.6375C27.6995 30.4725 27.7609 30.4603 27.8182 30.4365C27.8755 30.4128 27.9276 30.378 27.9714 30.3341C28.0153 30.2903 28.0501 30.2382 28.0738 30.1809C28.0975 30.1236 28.1098 30.0622 28.1098 30.0002V28.11C28.1098 27.9847 28.06 27.8646 27.9714 27.776C27.8829 27.6875 27.7628 27.6377 27.6375 27.6377H25.7473C25.6852 27.6376 25.6237 27.6498 25.5664 27.6735C25.509 27.6972 25.4569 27.732 25.4129 27.7758C25.369 27.8197 25.3342 27.8718 25.3104 27.9291C25.2866 27.9864 25.2744 28.0479 25.2744 28.11V30.0002C25.2744 30.0623 25.2866 30.1237 25.3104 30.1811C25.3342 30.2384 25.369 30.2905 25.4129 30.3344C25.4569 30.3782 25.509 30.413 25.5664 30.4367C25.6237 30.4604 25.6852 30.4725 25.7473 30.4725ZM26.2195 28.5828H27.1646V29.5279H26.2195V28.5828Z" fill="#1CAF57"/>
<path d="M34.2521 31.417H32.3619C32.2998 31.417 32.2384 31.4292 32.181 31.453C32.1237 31.4768 32.0716 31.5116 32.0278 31.5555C31.9839 31.5994 31.9491 31.6516 31.9254 31.7089C31.9017 31.7663 31.8896 31.8278 31.8896 31.8898V33.7801C31.8896 33.9053 31.9394 34.0255 32.028 34.114C32.1165 34.2026 32.2367 34.2523 32.3619 34.2523H34.2521C34.3142 34.2524 34.3757 34.2403 34.433 34.2166C34.4904 34.1929 34.5425 34.1581 34.5864 34.1142C34.6304 34.0704 34.6652 34.0183 34.689 33.9609C34.7127 33.9036 34.725 33.8422 34.725 33.7801V31.8898C34.725 31.7644 34.6752 31.6442 34.5865 31.5555C34.4978 31.4668 34.3775 31.417 34.2521 31.417ZM33.7799 33.3072H32.8348V32.3621H33.7799V33.3072Z" fill="#1CAF57"/>
<path d="M38.9785 31.417H37.09C36.9646 31.417 36.8444 31.4668 36.7557 31.5555C36.667 31.6442 36.6172 31.7644 36.6172 31.8898V33.7801C36.6172 33.8421 36.6294 33.9036 36.6532 33.9609C36.677 34.0183 36.7118 34.0704 36.7557 34.1142C36.7996 34.1581 36.8518 34.1929 36.9091 34.2166C36.9665 34.2403 37.028 34.2524 37.09 34.2523H38.9803C39.1055 34.2523 39.2256 34.2026 39.3142 34.114C39.4028 34.0255 39.4525 33.9053 39.4525 33.7801V31.8898C39.4526 31.8276 39.4404 31.766 39.4166 31.7085C39.3928 31.6511 39.3578 31.5988 39.3138 31.5549C39.2697 31.511 39.2174 31.4762 39.1599 31.4525C39.1024 31.4288 39.0407 31.4168 38.9785 31.417ZM38.5057 33.3072H37.5588V32.3621H38.5039L38.5057 33.3072Z" fill="#1CAF57"/>
<path d="M34.2521 27.6377H32.3619C32.2367 27.6377 32.1165 27.6875 32.028 27.776C31.9394 27.8646 31.8896 27.9847 31.8896 28.11V30.0002C31.8896 30.0622 31.9019 30.1236 31.9256 30.1809C31.9493 30.2382 31.9841 30.2903 32.028 30.3341C32.0718 30.378 32.1239 30.4128 32.1812 30.4365C32.2385 30.4603 32.2999 30.4725 32.3619 30.4725H34.2521C34.3142 30.4725 34.3757 30.4604 34.4331 30.4367C34.4904 30.413 34.5426 30.3782 34.5865 30.3344C34.6304 30.2905 34.6652 30.2384 34.689 30.1811C34.7128 30.1237 34.725 30.0623 34.725 30.0002V28.11C34.725 28.0479 34.7128 27.9864 34.689 27.9291C34.6652 27.8718 34.6304 27.8197 34.5865 27.7758C34.5426 27.732 34.4904 27.6972 34.4331 27.6735C34.3757 27.6498 34.3142 27.6376 34.2521 27.6377ZM33.7799 29.5279H32.8348V28.5828H33.7799V29.5279Z" fill="#1CAF57"/>
<path d="M38.9785 27.6377H37.09C37.028 27.6376 36.9665 27.6498 36.9091 27.6735C36.8518 27.6972 36.7996 27.732 36.7557 27.7758C36.7118 27.8197 36.677 27.8718 36.6532 27.9291C36.6294 27.9864 36.6172 28.0479 36.6172 28.11V30.0002C36.6172 30.0623 36.6294 30.1237 36.6532 30.1811C36.677 30.2384 36.7118 30.2905 36.7557 30.3343C36.7996 30.3782 36.8518 30.413 36.9091 30.4367C36.9665 30.4604 37.028 30.4725 37.09 30.4725H38.9803C39.0423 30.4725 39.1037 30.4602 39.161 30.4365C39.2183 30.4128 39.2704 30.378 39.3142 30.3341C39.3581 30.2903 39.3929 30.2382 39.4166 30.1809C39.4403 30.1236 39.4525 30.0622 39.4525 30.0002V28.11C39.4525 28.0478 39.4403 27.9862 39.4164 27.9288C39.3926 27.8714 39.3576 27.8193 39.3136 27.7754C39.2696 27.7315 39.2173 27.6968 39.1598 27.6731C39.1023 27.6495 39.0407 27.6375 38.9785 27.6377ZM38.5057 29.5279H37.5588V28.5828H38.5039L38.5057 29.5279Z" fill="#1CAF57"/>
<path d="M34.2521 23.8574H32.3619C32.2998 23.8574 32.2384 23.8697 32.181 23.8934C32.1237 23.9172 32.0716 23.952 32.0278 23.996C31.9839 24.0399 31.9491 24.092 31.9254 24.1494C31.9017 24.2067 31.8896 24.2682 31.8896 24.3303V26.2199C31.8896 26.282 31.9017 26.3435 31.9254 26.4008C31.9491 26.4582 31.9839 26.5103 32.0278 26.5542C32.0716 26.5982 32.1237 26.633 32.181 26.6568C32.2384 26.6805 32.2998 26.6928 32.3619 26.6928H34.2521C34.3775 26.6928 34.4978 26.643 34.5865 26.5543C34.6752 26.4656 34.725 26.3453 34.725 26.2199V24.3303C34.725 24.2049 34.6752 24.0846 34.5865 23.9959C34.4978 23.9072 34.3775 23.8574 34.2521 23.8574ZM33.7799 25.7477H32.8348V24.8025H33.7799V25.7477Z" fill="#1CAF57"/>
<path d="M38.9785 23.8574H37.09C36.9646 23.8574 36.8444 23.9072 36.7557 23.9959C36.667 24.0846 36.6172 24.2049 36.6172 24.3303V26.2199C36.6172 26.3453 36.667 26.4656 36.7557 26.5543C36.8444 26.643 36.9646 26.6928 37.09 26.6928H38.9803C39.0423 26.6928 39.1038 26.6805 39.1611 26.6568C39.2185 26.633 39.2705 26.5982 39.3144 26.5542C39.3583 26.5103 39.393 26.4582 39.4167 26.4008C39.4404 26.3435 39.4526 26.282 39.4525 26.2199V24.3303C39.4526 24.2681 39.4404 24.2064 39.4166 24.149C39.3928 24.0915 39.3578 24.0393 39.3138 23.9953C39.2697 23.9514 39.2174 23.9166 39.1599 23.8929C39.1024 23.8693 39.0407 23.8572 38.9785 23.8574ZM38.5057 25.7477H37.5588V24.8025H38.5039L38.5057 25.7477Z" fill="#1CAF57"/>
<path d="M34.2521 20.0771H32.3619C32.2367 20.0771 32.1165 20.1269 32.028 20.2155C31.9394 20.304 31.8896 20.4242 31.8896 20.5494V22.4414C31.8896 22.5667 31.9394 22.6868 32.028 22.7754C32.1165 22.8639 32.2367 22.9137 32.3619 22.9137H34.2521C34.3142 22.9138 34.3757 22.9016 34.4331 22.8779C34.4904 22.8542 34.5426 22.8194 34.5865 22.7756C34.6304 22.7317 34.6652 22.6796 34.689 22.6223C34.7128 22.5649 34.725 22.5035 34.725 22.4414V20.5494C34.725 20.4873 34.7128 20.4259 34.689 20.3686C34.6652 20.3112 34.6304 20.2591 34.5865 20.2153C34.5426 20.1714 34.4904 20.1366 34.4331 20.1129C34.3757 20.0892 34.3142 20.0771 34.2521 20.0771ZM33.7799 21.9668H32.8348V21.0217H33.7799V21.9668Z" fill="#1CAF57"/>
<path d="M38.9785 20.0772H37.09C37.028 20.0771 36.9665 20.0892 36.9091 20.1129C36.8518 20.1366 36.7996 20.1714 36.7557 20.2153C36.7118 20.2591 36.677 20.3112 36.6532 20.3686C36.6294 20.4259 36.6172 20.4874 36.6172 20.5494V22.4414C36.6181 22.5662 36.6684 22.6855 36.757 22.7733C36.8455 22.8611 36.9653 22.9103 37.09 22.9102H38.9803C39.0423 22.9102 39.1037 22.898 39.161 22.8742C39.2183 22.8505 39.2704 22.8157 39.3142 22.7718C39.3581 22.728 39.3929 22.6759 39.4166 22.6186C39.4403 22.5613 39.4525 22.4999 39.4525 22.4379V20.5494C39.4525 20.4873 39.4403 20.4257 39.4164 20.3683C39.3926 20.3109 39.3576 20.2587 39.3136 20.2149C39.2696 20.171 39.2173 20.1362 39.1598 20.1126C39.1023 20.089 39.0407 20.0769 38.9785 20.0772ZM38.5057 21.9668H37.5588V21.0217H38.5039L38.5057 21.9668Z" fill="#1CAF57"/>
<path d="M43.2308 43.7033H41.8129V18.1055C42.1282 17.9941 42.394 17.7749 42.5633 17.4864C42.7326 17.198 42.7945 16.859 42.738 16.5294C42.6814 16.1997 42.5102 15.9007 42.2544 15.6852C41.9987 15.4696 41.675 15.3515 41.3406 15.3516H29.9998C29.6653 15.3515 29.3416 15.4696 29.0859 15.6852C28.8302 15.9007 28.6589 16.1997 28.6024 16.5294C28.5459 16.859 28.6077 17.198 28.777 17.4864C28.9463 17.7749 29.2121 17.9941 29.5275 18.1055V22.9102H18.6589C18.3245 22.9101 18.0008 23.0282 17.7451 23.2438C17.4894 23.4593 17.3181 23.7583 17.2616 24.088C17.205 24.4176 17.2669 24.7566 17.4362 25.045C17.6055 25.3334 17.8713 25.5527 18.1867 25.6641V43.7033H16.7687C16.6463 43.7076 16.5303 43.7593 16.4452 43.8475C16.3601 43.9356 16.3125 44.0534 16.3125 44.1759C16.3125 44.2984 16.3601 44.4161 16.4452 44.5043C16.5303 44.5924 16.6463 44.6441 16.7687 44.6484H43.2308C43.3533 44.6441 43.4693 44.5924 43.5544 44.5043C43.6395 44.4161 43.687 44.2984 43.687 44.1759C43.687 44.0534 43.6395 43.9356 43.5544 43.8475C43.4693 43.7593 43.3533 43.7076 43.2308 43.7033ZM29.9998 16.2967H41.3406C41.463 16.301 41.579 16.3527 41.6641 16.4408C41.7492 16.529 41.7968 16.6467 41.7968 16.7692C41.7968 16.8918 41.7492 17.0095 41.6641 17.0977C41.579 17.1858 41.463 17.2375 41.3406 17.2418H29.9998C29.8773 17.2375 29.7613 17.1858 29.6762 17.0977C29.5911 17.0095 29.5436 16.8918 29.5436 16.7692C29.5436 16.6467 29.5911 16.529 29.6762 16.4408C29.7613 16.3527 29.8773 16.301 29.9998 16.2967ZM18.6589 23.8553H29.5275V24.8004H18.6589C18.5365 24.7961 18.4205 24.7444 18.3354 24.6563C18.2503 24.5681 18.2027 24.4504 18.2027 24.3278C18.2027 24.2053 18.2503 24.0876 18.3354 23.9994C18.4205 23.9113 18.5365 23.8596 18.6589 23.8553ZM19.1318 25.7455H29.5275V43.7033H26.6922V40.3957C26.6922 40.2703 26.6423 40.15 26.5537 40.0613C26.465 39.9727 26.3447 39.9229 26.2193 39.9229H22.4412C22.3158 39.9229 22.1955 39.9727 22.1068 40.0613C22.0181 40.15 21.9683 40.2703 21.9683 40.3957V43.7033H19.1318V25.7455ZM22.9099 43.7033V40.868H25.7453V43.7033H22.9099ZM34.2507 43.7033V40.868H37.0896V43.7033H34.2507ZM38.0312 43.7033V40.3957C38.0312 40.2703 37.9814 40.15 37.8927 40.0613C37.804 39.9727 37.6838 39.9229 37.5584 39.9229H33.7802C33.6548 39.9229 33.5346 39.9727 33.4459 40.0613C33.3572 40.15 33.3074 40.2703 33.3074 40.3957V43.7033H30.472V18.1869H40.8677V43.7033H38.0312Z" fill="#1CAF57"/>
</svg>
