<svg width="60" height="60" viewBox="0 0 60 60" fill="none" xmlns="http://www.w3.org/2000/svg">
<rect opacity="0.1" width="60" height="60" rx="12" fill="#1CAF57"/>
<g clip-path="url(#clip0_1502_2520)">
<path d="M30.0008 32.9998C29.4486 32.9998 29.0009 32.5521 29.0009 31.9998C29.0009 31.4476 29.4486 30.9999 30.0008 30.9999C30.5531 30.9999 31.0008 31.4476 31.0008 31.9998H32.0007C31.9973 31.0907 31.3811 30.2983 30.5008 30.071V29.5H29.5009V30.071C28.4334 30.3457 27.7907 31.4338 28.0655 32.5013C28.2927 33.3841 29.0892 34.0008 30.0008 33.9997C30.5531 33.9997 31.0008 34.4474 31.0008 34.9996C31.0008 35.5519 30.5531 35.9996 30.0008 35.9996C29.4486 35.9996 29.0009 35.5519 29.0009 34.9996H28.001C28.0044 35.9088 28.6206 36.7012 29.5009 36.9285V37.4995H30.5008V36.9285C31.5683 36.6538 32.2109 35.5657 31.9362 34.4982C31.709 33.6153 30.9125 32.9986 30.0008 32.9998Z" fill="#1CAF57"/>
<path d="M30.0005 27C26.4109 27 23.501 29.9099 23.501 33.4996C23.501 37.0892 26.4109 39.9991 30.0005 39.9991C33.5902 39.9991 36.5001 37.0892 36.5001 33.4996C36.496 29.9117 33.5884 27.0041 30.0005 27ZM30.0005 38.9992C26.9632 38.9992 24.5009 36.5369 24.5009 33.4996C24.5009 30.4622 26.9632 27.9999 30.0005 27.9999C33.0379 27.9999 35.5002 30.4622 35.5002 33.4996C35.4966 36.5354 33.0364 38.9956 30.0005 38.9992Z" fill="#1CAF57"/>
<path d="M44.5 26.0004C44.7761 26.0004 45 25.7765 45 25.5004V23.5005C45 23.494 44.9965 23.489 44.9965 23.4825C44.9946 23.4279 44.9836 23.374 44.964 23.323C44.964 23.317 44.964 23.3101 44.9595 23.3041C44.9352 23.2495 44.9014 23.1997 44.8595 23.1571C44.8447 23.1439 44.8291 23.1316 44.813 23.1201C44.7906 23.0989 44.7664 23.0798 44.7405 23.0631L30.2415 15.0636C30.0913 14.9801 29.9087 14.9801 29.7585 15.0636L15.2595 23.0631C15.2336 23.0798 15.2094 23.0989 15.187 23.1201C15.1709 23.1316 15.1553 23.1439 15.1405 23.1571C15.0986 23.1997 15.0648 23.2495 15.0405 23.3041C15.0405 23.3101 15.0405 23.317 15.036 23.323C15.0164 23.374 15.0054 23.4279 15.0035 23.4825C15.0035 23.489 15 23.494 15 23.5005V25.5004C15 25.7765 15.2239 26.0004 15.5 26.0004H17.0019V40.9994H15.502C15.2259 40.9994 15.002 41.2232 15.002 41.4993V44.4991C15.002 44.7752 15.2259 44.9991 15.502 44.9991H44.5C44.7761 44.9991 45 44.7752 45 44.4991V41.4993C45 41.2232 44.7761 40.9994 44.5 40.9994H43.0001V26.0004H44.5ZM30.001 16.072L42.5587 23.0006H17.4433L30.001 16.072ZM44.0001 41.9993V43.9992H16.0019V41.9993H44.0001ZM18.0018 40.9994V26.0004H20.0017V40.9994H18.0018ZM21.0016 40.9994V26.0004H39.0004V40.9994H21.0016ZM40.0003 40.9994V26.0004H42.0002V40.9994H40.0003ZM16.0019 25.0004V24.0005H44.0001V25.0004H16.0019Z" fill="#1CAF57"/>
</g>
<defs>
<clipPath id="clip0_1502_2520">
<rect width="30" height="30" fill="white" transform="translate(15 15)"/>
</clipPath>
</defs>
</svg>
